<?xml version="1.0" standalone="no"?>
<!DOCTYPE svg PUBLIC "-//W3C//DTD SVG 20010904//EN"
        "http://www.w3.org/TR/2001/REC-SVG-20010904/DTD/svg10.dtd">
<svg version="1.0" xmlns="http://www.w3.org/2000/svg"
     width="827.000000pt" height="827.000000pt" viewBox="0 0 827.000000 827.000000"
     preserveAspectRatio="xMidYMid meet">

    <g transform="translate(0.000000,827.000000) scale(0.100000,-0.100000)"
       fill="#000000" stroke="none">
        <path d="M2503 7643 c9 -2 25 -2 35 0 9 3 1 5 -18 5 -19 0 -27 -2 -17 -5z"/>
        <path d="M2818 7643 c17 -2 47 -2 65 0 17 2 3 4 -33 4 -36 0 -50 -2 -32 -4z"/>
        <path d="M5808 7643 c12 -2 30 -2 40 0 9 3 -1 5 -23 4 -22 0 -30 -2 -17 -4z"/>
        <path d="M1494 7188 l-29 -33 33 29 c17 17 32 31 32 33 0 8 -8 1 -36 -29z"/>
        <path d="M2510 6999 c-191 -22 -366 -101 -513 -232 -116 -102 -171 -178 -251
-342 -66 -135 -82 -176 -100 -267 -4 -15 -6 -606 -7 -1315 0 -1147 1 -1296 15
-1358 51 -219 129 -365 281 -524 83 -87 160 -148 233 -185 67 -34 77 -29 20 9
-66 43 -228 212 -279 290 -105 161 -148 306 -157 530 -8 193 1 2221 10 2252 4
12 13 37 22 55 8 18 22 55 30 81 39 119 118 237 246 371 57 58 107 106 113
106 6 0 18 6 26 14 33 28 178 95 231 105 205 43 130 41 1745 41 847 -1 1560
-2 1585 -5 100 -9 139 -18 225 -52 167 -66 234 -111 361 -245 134 -142 185
-254 254 -558 7 -29 10 -320 9 -800 0 -415 3 -966 6 -1225 7 -416 5 -478 -9
-539 -22 -93 -64 -178 -126 -254 -28 -35 -49 -67 -45 -70 9 -9 122 105 181
184 83 112 124 200 181 389 l36 120 -1 1285 -1 1285 -25 90 c-32 112 -109 268
-179 360 -148 198 -347 327 -590 385 -79 19 -138 20 -1777 22 -932 2 -1720 0
-1750 -3z"/>
        <path d="M1069 6470 c-2 -27 -5 -35 -21 -70 -9 -19 -30 -69 -47 -110 l-29 -75
-1 -1450 c-1 -1621 -6 -1513 75 -1776 34 -112 150 -332 220 -416 122 -148 195
-218 336 -328 84 -65 158 -122 163 -127 6 -6 12 -287 15 -786 6 -875 0 -814
85 -869 44 -29 58 -33 119 -33 113 0 163 36 457 329 135 135 321 320 413 411
92 91 293 292 447 448 154 155 299 295 322 310 l42 27 1245 6 c685 3 1259 9
1275 13 17 4 59 14 95 23 36 8 92 25 125 38 233 89 223 84 357 177 98 69 212
166 282 241 147 158 279 409 326 622 28 125 37 174 31 184 -4 5 -12 -15 -19
-45 -15 -64 -85 -240 -132 -333 -88 -175 -260 -374 -437 -505 -171 -127 -288
-188 -453 -237 -246 -72 -180 -69 -1414 -69 -611 0 -1156 -3 -1211 -6 l-100
-7 -455 -451 c-906 -898 -1001 -990 -1060 -1018 -84 -40 -165 -41 -207 -2 -15
14 -22 23 -15 19 18 -9 15 10 -5 26 -11 10 -14 10 -9 1 4 -6 3 -12 -2 -12 -6
0 -13 7 -16 16 -3 9 -6 369 -6 800 l0 785 -46 27 c-173 102 -418 332 -523 492
-138 211 -220 441 -251 711 -14 116 -14 2298 0 2619 6 142 16 244 28 302 11
50 16 92 11 100 -7 10 -9 10 -10 -2z"/>
        <path d="M7431 6124 c0 -11 3 -14 6 -6 3 7 2 16 -1 19 -3 4 -6 -2 -5 -13z"/>
        <path d="M4063 5818 c-15 -29 -30 -57 -32 -63 -2 -5 -21 -48 -43 -95 -53 -110
-100 -247 -96 -276 3 -21 10 -17 83 49 44 39 93 82 109 95 l29 23 -16 53 c-19
58 -22 158 -7 221 5 22 7 41 5 43 -2 2 -16 -20 -32 -50z"/>
        <path d="M4552 5823 c-17 -8 -46 -30 -63 -47 -27 -27 -30 -36 -26 -70 14 -106
131 -166 222 -114 78 46 107 129 65 188 -40 56 -131 76 -198 43z"/>
        <path d="M5100 5451 c-17 -52 -124 -166 -205 -219 -62 -41 -160 -72 -246 -79
-70 -6 -170 12 -261 47 l-52 19 -15 -22 c-9 -12 -36 -40 -60 -62 -25 -22 -94
-87 -153 -144 -60 -58 -143 -130 -184 -160 l-75 -56 7 -40 c3 -22 8 -43 10
-46 2 -3 42 -9 90 -13 86 -7 87 -7 113 21 15 15 63 63 108 105 l81 77 69 -10
c89 -13 304 -13 370 0 76 15 130 42 212 107 59 46 79 68 102 118 16 34 29 69
29 79 0 10 6 30 14 46 25 48 67 209 64 243 l-3 33 -15 -44z"/>
        <path d="M2848 4923 c6 -2 18 -2 25 0 6 3 1 5 -13 5 -14 0 -19 -2 -12 -5z"/>
        <path d="M2751 4813 c-90 -91 -151 -189 -151 -242 0 -57 60 -99 126 -87 29 6
40 16 62 54 15 26 56 76 92 111 36 35 73 76 82 90 24 36 22 82 -5 122 -20 30
-29 34 -71 37 l-48 3 -87 -88z"/>
        <path d="M2336 4748 c-17 -28 -95 -174 -152 -288 l-43 -85 0 -135 c-1 -222 31
-344 130 -492 69 -102 235 -235 357 -286 136 -58 378 -79 540 -47 71 14 192
57 218 77 6 4 36 20 66 36 65 32 158 108 158 128 0 8 6 14 13 14 12 0 77 100
127 198 l22 42 102 0 c178 -1 529 -19 535 -28 7 -10 175 -29 339 -38 110 -7
114 -8 125 -33 6 -14 14 -28 17 -31 4 -3 12 -20 20 -39 24 -59 107 -175 152
-211 65 -54 149 -97 230 -120 154 -42 396 -17 511 54 149 93 150 94 176 148
14 29 28 55 31 58 10 9 39 125 56 222 9 51 20 115 25 142 11 67 5 69 -16 4
-42 -126 -157 -237 -317 -304 -53 -22 -82 -27 -185 -31 -134 -6 -212 10 -304
61 -105 59 -208 186 -245 303 l-19 60 -145 12 c-80 7 -215 21 -300 32 -163 20
-348 34 -592 45 -136 6 -148 5 -148 -11 0 -28 -66 -146 -119 -211 -93 -114
-268 -227 -416 -266 -92 -25 -253 -34 -337 -19 -162 28 -318 101 -408 191 -86
85 -166 210 -205 320 -40 113 -38 348 5 490 20 64 19 73 -4 38z"/>
        <path d="M5495 4381 c-63 -29 -90 -65 -89 -117 2 -81 65 -134 160 -134 41 0
59 6 92 30 49 36 62 57 62 106 0 43 -35 96 -80 119 -39 20 -96 19 -145 -4z"/>
        <path d="M2444 2600 c4 -30 22 -504 29 -783 l2 -89 50 46 50 46 -8 317 c-8
301 -10 321 -31 368 -13 28 -40 68 -60 90 l-37 40 5 -35z"/>
        <path d="M3615 2080 c-3 -5 -2 -10 4 -10 5 0 13 5 16 10 3 6 2 10 -4 10 -5 0
-13 -4 -16 -10z"/>
    </g>
</svg>
