<?xml version="1.0" standalone="no"?>
<svg version="1.0" xmlns="http://www.w3.org/2000/svg"
     fill="#636364"
     width="827.000000pt" height="827.000000pt" viewBox="0 0 827.000000 827.000000"
     preserveAspectRatio="xMidYMid meet">

    <g transform="translate(0.000000,827.000000) scale(0.100000,-0.100000)" stroke="none">
        <path d="M2515 7003 c-134 -18 -324 -87 -417 -151 -72 -50 -206 -181 -252
-246 -77 -108 -179 -325 -196 -419 -6 -28 -10 -602 -11 -1345 -2 -1293 -2
-1297 19 -1382 54 -213 145 -373 299 -525 91 -90 183 -153 278 -189 39 -15 87
-34 108 -43 42 -18 84 -63 92 -96 12 -54 25 -307 31 -582 3 -165 7 -301 8
-303 2 -1 183 181 402 405 219 223 432 435 472 469 126 107 -9 98 1437 99
l1260 0 76 22 c156 44 294 129 415 254 128 134 179 226 255 460 l44 134 2
1250 c2 822 -1 1272 -8 1314 -59 370 -332 700 -674 818 -162 56 -70 53 -1908
56 -936 2 -1715 2 -1732 0z m2203 -779 c102 -21 184 -61 258 -128 122 -110
178 -233 178 -391 0 -92 -24 -194 -65 -276 -21 -42 -125 -149 -184 -188 -76
-52 -199 -91 -285 -91 -52 0 -220 39 -259 59 -15 8 -46 -18 -185 -152 -164
-157 -296 -267 -323 -267 -7 0 -13 -1 -13 -2 1 -2 7 -25 14 -53 l13 -50 69 -7
c439 -45 532 -56 904 -99 52 -6 131 -17 174 -25 78 -14 95 -11 96 18 0 4 25
34 56 67 99 107 210 153 374 155 173 1 293 -45 406 -158 143 -144 200 -318
159 -487 -25 -101 -50 -165 -82 -211 -66 -96 -206 -191 -329 -223 -78 -20
-235 -20 -305 1 -173 52 -311 185 -366 355 l-18 56 -135 12 c-74 7 -207 21
-295 31 -193 23 -364 36 -586 45 l-166 7 -7 -28 c-14 -56 -80 -160 -145 -228
-82 -85 -166 -146 -265 -191 -126 -57 -184 -69 -341 -68 -128 0 -148 3 -235
31 -105 33 -227 102 -289 162 -98 95 -189 250 -217 368 -13 52 -15 100 -11
217 9 232 38 315 164 467 156 188 337 286 548 296 190 9 341 -34 498 -140 l58
-39 157 148 c138 130 287 262 361 320 23 19 23 19 6 54 -41 78 -28 240 30 367
44 95 186 211 308 251 105 34 167 37 275 15z"/>
        <path d="M4673 5854 c15 -8 27 -16 27 -18 0 -2 -23 -1 -50 2 -64 6 -130 -18
-166 -61 -45 -53 -21 -132 56 -184 57 -40 137 -25 194 35 34 36 46 105 25 143
-7 13 -13 29 -14 34 0 6 -5 10 -12 10 -6 0 -15 4 -20 9 -5 5 -3 6 5 2 6 -4 12
-3 12 1 0 11 -41 36 -65 40 -15 2 -13 -1 8 -13z"/>
        <path d="M2860 4903 c-62 -22 -184 -152 -234 -250 -35 -69 -34 -107 3 -144 22
-22 39 -29 68 -29 50 0 74 18 111 84 17 30 56 76 87 103 64 54 85 88 85 134 0
38 -38 99 -62 99 -9 0 -22 2 -30 4 -7 3 -20 2 -28 -1z"/>
        <path d="M5625 4410 c11 -4 34 -23 50 -41 l30 -33 -38 32 c-41 35 -88 41 -159
22 -44 -13 -108 -80 -108 -114 0 -68 43 -121 117 -142 43 -13 60 -13 89 -4 51
17 102 66 113 108 22 81 -31 183 -94 181 -20 0 -20 0 0 -9z"/>
        <path d="M1048 6395 c-16 -35 -28 -69 -28 -75 0 -6 -6 -21 -14 -33 -8 -12 -18
-35 -23 -52 -4 -16 -9 -676 -11 -1465 -2 -1290 -1 -1444 13 -1520 45 -232 67
-299 153 -465 111 -215 232 -354 470 -542 l172 -137 0 -737 c0 -453 4 -757 10
-789 12 -61 27 -81 89 -122 38 -23 56 -28 110 -28 119 0 127 7 841 717 349
348 651 652 670 677 19 24 64 64 100 88 l65 43 275 3 c151 2 727 7 1280 11
978 9 1007 9 1070 30 108 34 229 78 276 100 24 12 48 21 54 21 5 0 10 3 10 8
0 4 17 15 38 25 69 33 226 157 330 259 184 181 325 437 373 678 6 30 11 60 13
65 1 6 4 15 8 20 3 6 6 30 5 55 0 25 -2 36 -5 25 -29 -125 -130 -362 -199
-470 -88 -136 -255 -320 -352 -387 -24 -17 -71 -51 -105 -77 -126 -95 -292
-163 -561 -232 -38 -9 -338 -14 -1290 -19 -682 -3 -1242 -7 -1244 -8 -3 -1
-192 -188 -420 -415 -892 -885 -1025 -1014 -1081 -1046 -41 -23 -63 -30 -85
-25 -23 4 -26 3 -15 -5 11 -8 1 -10 -40 -10 -40 1 -48 3 -30 8 l25 7 -27 7
c-15 4 -43 21 -61 37 -19 16 -37 27 -41 23 -3 -3 -6 347 -5 778 0 459 4 776 9
764 7 -16 9 -13 7 14 -1 25 -11 41 -42 68 -52 45 -77 59 -69 38 3 -8 10 -12
15 -9 5 3 9 1 9 -5 0 -5 16 -19 36 -31 59 -37 31 -33 -32 4 -95 56 -229 162
-249 197 -5 8 5 2 21 -12 38 -34 104 -83 104 -77 0 3 -50 49 -112 103 -61 54
-98 82 -82 62 16 -21 32 -37 35 -37 4 0 10 -8 13 -17 4 -10 -22 11 -58 47 -58
57 -85 93 -56 75 15 -9 -30 64 -57 93 -35 37 -28 16 13 -42 25 -34 29 -44 14
-31 -47 41 -210 308 -196 322 2 2 14 -17 26 -44 27 -62 99 -173 112 -173 6 0
-1 15 -15 33 -41 50 -90 143 -131 247 -21 52 -42 104 -47 115 -15 35 2 -35 22
-89 10 -28 17 -51 15 -53 -7 -7 -58 138 -82 231 -26 100 -30 133 -8 71 l14
-40 -7 45 c-26 185 -30 206 -35 165 -3 -22 -4 -12 -2 23 2 41 0 61 -7 56 -7
-4 -9 346 -5 1098 2 606 5 1207 5 1333 0 162 4 252 15 305 8 41 17 93 21 115
3 22 8 48 11 58 3 9 2 17 -3 17 -4 0 -20 -29 -35 -65z"/>
    </g>
</svg>
