<?xml version="1.0" standalone="no"?>
<!DOCTYPE svg PUBLIC "-//W3C//DTD SVG 20010904//EN"
 "http://www.w3.org/TR/2001/REC-SVG-20010904/DTD/svg10.dtd">
<svg version="1.0" xmlns="http://www.w3.org/2000/svg"
 width="827.000000pt" height="827.000000pt" viewBox="0 0 827.000000 827.000000"
 preserveAspectRatio="xMidYMid meet">

<g transform="translate(0.000000,827.000000) scale(0.100000,-0.100000)"
fill="#000000" stroke="none">
<path d="M2642 7643 c92 -2 245 -2 340 0 95 1 20 3 -167 3 -187 0 -265 -2
-173 -3z"/>
<path d="M5573 7643 c59 -2 155 -2 215 0 59 1 10 3 -108 3 -118 0 -167 -2
-107 -3z"/>
<path d="M2348 7633 c7 -3 16 -2 19 1 4 3 -2 6 -13 5 -11 0 -14 -3 -6 -6z"/>
<path d="M5998 7633 c6 -2 18 -2 25 0 6 3 1 5 -13 5 -14 0 -19 -2 -12 -5z"/>
<path d="M1589 7273 c-13 -16 -12 -17 4 -4 9 7 17 15 17 17 0 8 -8 3 -21 -13z"/>
<path d="M6860 7266 c0 -2 8 -10 18 -17 15 -13 16 -12 3 4 -13 16 -21 21 -21
13z"/>
<path d="M1490 7183 l-55 -58 58 55 c31 30 57 56 57 57 0 8 -10 -1 -60 -54z"/>
<path d="M7050 7076 c0 -2 8 -10 18 -17 15 -13 16 -12 3 4 -13 16 -21 21 -21
13z"/>
<path d="M5958 7023 c6 -2 18 -2 25 0 6 3 1 5 -13 5 -14 0 -19 -2 -12 -5z"/>
<path d="M6004 7013 c11 -12 106 -31 106 -22 0 4 -23 12 -50 18 -60 13 -66 13
-56 4z"/>
<path d="M1329 6993 c-13 -16 -12 -17 4 -4 16 13 21 21 13 21 -2 0 -10 -8 -17
-17z"/>
<path d="M2515 7003 c-134 -18 -324 -87 -417 -151 -72 -50 -206 -181 -252
-246 -77 -108 -179 -325 -196 -419 -6 -28 -10 -602 -11 -1345 -2 -1293 -2
-1297 19 -1382 54 -213 145 -373 299 -525 91 -90 183 -153 278 -189 39 -15 87
-34 108 -43 42 -18 84 -63 92 -96 12 -54 25 -307 31 -582 3 -165 7 -301 8
-303 2 -1 183 181 402 405 219 223 432 435 472 469 126 107 -9 98 1437 99
l1260 0 76 22 c156 44 294 129 415 254 128 134 179 226 255 460 l44 134 2
1250 c2 822 -1 1272 -8 1314 -59 370 -332 700 -674 818 -162 56 -70 53 -1908
56 -936 2 -1715 2 -1732 0z m2203 -779 c102 -21 184 -61 258 -128 122 -110
178 -233 178 -391 0 -92 -24 -194 -65 -276 -21 -42 -125 -149 -184 -188 -76
-52 -199 -91 -285 -91 -52 0 -220 39 -259 59 -15 8 -46 -18 -185 -152 -164
-157 -296 -267 -323 -267 -7 0 -13 -1 -13 -2 1 -2 7 -25 14 -53 l13 -50 69 -7
c439 -45 532 -56 904 -99 52 -6 131 -17 174 -25 78 -14 95 -11 96 18 0 4 25
34 56 67 99 107 210 153 374 155 173 1 293 -45 406 -158 143 -144 200 -318
159 -487 -25 -101 -50 -165 -82 -211 -66 -96 -206 -191 -329 -223 -78 -20
-235 -20 -305 1 -173 52 -311 185 -366 355 l-18 56 -135 12 c-74 7 -207 21
-295 31 -193 23 -364 36 -586 45 l-166 7 -7 -28 c-14 -56 -80 -160 -145 -228
-82 -85 -166 -146 -265 -191 -126 -57 -184 -69 -341 -68 -128 0 -148 3 -235
31 -105 33 -227 102 -289 162 -98 95 -189 250 -217 368 -13 52 -15 100 -11
217 9 232 38 315 164 467 156 188 337 286 548 296 190 9 341 -34 498 -140 l58
-39 157 148 c138 130 287 262 361 320 23 19 23 19 6 54 -41 78 -28 240 30 367
44 95 186 211 308 251 105 34 167 37 275 15z"/>
<path d="M4673 5854 c15 -8 27 -16 27 -18 0 -2 -23 -1 -50 2 -64 6 -130 -18
-166 -61 -45 -53 -21 -132 56 -184 57 -40 137 -25 194 35 34 36 46 105 25 143
-7 13 -13 29 -14 34 0 6 -5 10 -12 10 -6 0 -15 4 -20 9 -5 5 -3 6 5 2 6 -4 12
-3 12 1 0 11 -41 36 -65 40 -15 2 -13 -1 8 -13z"/>
<path d="M4964 5318 l-19 -23 23 19 c21 18 27 26 19 26 -2 0 -12 -10 -23 -22z"/>
<path d="M4342 5250 c0 -14 2 -19 5 -12 2 6 2 18 0 25 -3 6 -5 1 -5 -13z"/>
<path d="M4838 5235 c-2 -3 -38 -14 -79 -24 -41 -11 -62 -20 -48 -20 32 -1
126 26 134 39 6 10 2 14 -7 5z"/>
<path d="M4490 5190 c8 -5 31 -9 50 -9 l35 1 -30 8 c-16 4 -39 8 -50 9 -16 1
-17 -1 -5 -9z"/>
<path d="M2820 4920 c-12 -8 -11 -10 5 -9 11 1 34 5 50 9 l30 8 -35 1 c-19 0
-42 -4 -50 -9z"/>
<path d="M2860 4903 c-62 -22 -184 -152 -234 -250 -35 -69 -34 -107 3 -144 22
-22 39 -29 68 -29 50 0 74 18 111 84 17 30 56 76 87 103 64 54 85 88 85 134 0
38 -38 99 -62 99 -9 0 -22 2 -30 4 -7 3 -20 2 -28 -1z"/>
<path d="M5625 4410 c11 -4 34 -23 50 -41 l30 -33 -38 32 c-41 35 -88 41 -159
22 -44 -13 -108 -80 -108 -114 0 -68 43 -121 117 -142 43 -13 60 -13 89 -4 51
17 102 66 113 108 22 81 -31 183 -94 181 -20 0 -20 0 0 -9z"/>
<path d="M5022 4140 c0 -14 2 -19 5 -12 2 6 2 18 0 25 -3 6 -5 1 -5 -13z"/>
<path d="M2470 4007 c0 -12 59 -67 72 -67 6 0 9 1 7 3 -2 1 -21 18 -42 36 -20
19 -37 32 -37 28z"/>
<path d="M2550 3919 c0 -5 5 -7 10 -4 6 3 10 8 10 11 0 2 -4 4 -10 4 -5 0 -10
-5 -10 -11z"/>
<path d="M5140 3905 c24 -31 61 -68 65 -63 3 2 -14 22 -37 44 -23 21 -36 30
-28 19z"/>
<path d="M2576 3902 c-3 -6 1 -13 10 -16 23 -9 28 -2 10 13 -8 7 -17 8 -20 3z"/>
<path d="M2655 3840 c3 -5 8 -10 11 -10 2 0 4 5 4 10 0 6 -5 10 -11 10 -5 0
-7 -4 -4 -10z"/>
<path d="M5345 3750 c3 -5 13 -10 21 -10 8 0 14 5 14 10 0 6 -9 10 -21 10 -11
0 -17 -4 -14 -10z"/>
<path d="M5390 3742 c0 -5 7 -9 15 -9 8 0 12 4 9 9 -3 4 -9 8 -15 8 -5 0 -9
-4 -9 -8z"/>
<path d="M6250 6932 c0 -7 12 -15 63 -40 5 -3 4 5 -2 16 -14 26 -61 45 -61 24z"/>
<path d="M2119 6893 c-13 -16 -12 -17 4 -4 9 7 17 15 17 17 0 8 -8 3 -21 -13z"/>
<path d="M6525 6736 c50 -51 105 -115 123 -141 18 -27 32 -46 32 -42 0 13 -24
57 -31 57 -4 0 -10 8 -14 19 -7 22 -152 174 -181 189 -11 6 21 -31 71 -82z"/>
<path d="M1949 6753 l-34 -38 38 34 c20 19 37 36 37 38 0 8 -8 0 -41 -34z"/>
<path d="M6732 6458 c23 -48 45 -83 46 -77 4 10 -62 136 -80 154 -5 6 10 -29
34 -77z"/>
<path d="M1048 6395 c-16 -35 -28 -69 -28 -75 0 -6 -6 -21 -14 -33 -8 -12 -18
-35 -23 -52 -4 -16 -9 -676 -11 -1465 -2 -1290 -1 -1444 13 -1520 45 -232 67
-299 153 -465 111 -215 232 -354 470 -542 l172 -137 0 -737 c0 -453 4 -757 10
-789 12 -61 27 -81 89 -122 38 -23 56 -28 110 -28 119 0 127 7 841 717 349
348 651 652 670 677 19 24 64 64 100 88 l65 43 275 3 c151 2 727 7 1280 11
978 9 1007 9 1070 30 108 34 229 78 276 100 24 12 48 21 54 21 5 0 10 3 10 8
0 4 17 15 38 25 69 33 226 157 330 259 184 181 325 437 373 678 6 30 11 60 13
65 1 6 4 15 8 20 3 6 6 30 5 55 0 25 -2 36 -5 25 -29 -125 -130 -362 -199
-470 -88 -136 -255 -320 -352 -387 -24 -17 -71 -51 -105 -77 -126 -95 -292
-163 -561 -232 -38 -9 -338 -14 -1290 -19 -682 -3 -1242 -7 -1244 -8 -3 -1
-192 -188 -420 -415 -892 -885 -1025 -1014 -1081 -1046 -41 -23 -63 -30 -85
-25 -23 4 -26 3 -15 -5 11 -8 1 -10 -40 -10 -40 1 -48 3 -30 8 l25 7 -27 7
c-15 4 -43 21 -61 37 -19 16 -37 27 -41 23 -3 -3 -6 347 -5 778 0 459 4 776 9
764 7 -16 9 -13 7 14 -1 25 -11 41 -42 68 -52 45 -77 59 -69 38 3 -8 10 -12
15 -9 5 3 9 1 9 -5 0 -5 16 -19 36 -31 59 -37 31 -33 -32 4 -95 56 -229 162
-249 197 -5 8 5 2 21 -12 38 -34 104 -83 104 -77 0 3 -50 49 -112 103 -61 54
-98 82 -82 62 16 -21 32 -37 35 -37 4 0 10 -8 13 -17 4 -10 -22 11 -58 47 -58
57 -85 93 -56 75 15 -9 -30 64 -57 93 -35 37 -28 16 13 -42 25 -34 29 -44 14
-31 -47 41 -210 308 -196 322 2 2 14 -17 26 -44 27 -62 99 -173 112 -173 6 0
-1 15 -15 33 -41 50 -90 143 -131 247 -21 52 -42 104 -47 115 -15 35 2 -35 22
-89 10 -28 17 -51 15 -53 -7 -7 -58 138 -82 231 -26 100 -30 133 -8 71 l14
-40 -7 45 c-26 185 -30 206 -35 165 -3 -22 -4 -12 -2 23 2 41 0 61 -7 56 -7
-4 -9 346 -5 1098 2 606 5 1207 5 1333 0 162 4 252 15 305 8 41 17 93 21 115
3 22 8 48 11 58 3 9 2 17 -3 17 -4 0 -20 -29 -35 -65z"/>
<path d="M6830 6200 c0 -16 4 -30 8 -30 5 0 7 14 4 30 -2 17 -6 30 -8 30 -2 0
-4 -13 -4 -30z"/>
<path d="M7433 6090 c0 -41 2 -58 4 -37 2 20 2 54 0 75 -2 20 -4 3 -4 -38z"/>
<path d="M7434 5420 c0 -91 2 -128 3 -82 2 45 2 119 0 165 -1 45 -3 8 -3 -83z"/>
<path d="M7434 4905 c0 -110 2 -156 3 -103 2 53 2 143 0 200 -1 57 -3 13 -3
-97z"/>
<path d="M7432 3475 c0 -16 2 -22 5 -12 2 9 2 23 0 30 -3 6 -5 -1 -5 -18z"/>
<path d="M7421 3404 c0 -11 3 -14 6 -6 3 7 2 16 -1 19 -3 4 -6 -2 -5 -13z"/>
<path d="M7054 2638 l-19 -23 23 19 c12 11 22 21 22 23 0 8 -8 2 -26 -19z"/>
<path d="M6745 2364 c-55 -35 -130 -81 -167 -101 -73 -38 -96 -68 -25 -32 23
12 44 25 47 28 3 4 32 22 65 40 83 47 202 131 183 131 -2 0 -48 -30 -103 -66z"/>
<path d="M1735 2320 c3 -5 8 -10 11 -10 2 0 4 5 4 10 0 6 -5 10 -11 10 -5 0
-7 -4 -4 -10z"/>
<path d="M6460 2204 c-16 -8 -19 -14 -9 -14 8 0 24 7 35 15 24 18 7 18 -26 -1z"/>
<path d="M6295 2149 c-45 -20 -28 -24 24 -5 19 7 31 15 25 18 -5 3 -27 -3 -49
-13z"/>
<path d="M6105 2100 c-3 -6 1 -7 9 -4 18 7 21 14 7 14 -6 0 -13 -4 -16 -10z"/>
<path d="M3583 2047 l-48 -50 42 32 c54 41 89 51 188 52 73 1 76 2 35 10 -25
4 -73 7 -107 7 -61 -1 -63 -2 -110 -51z"/>
<path d="M2989 1443 c-13 -16 -12 -17 4 -4 16 13 21 21 13 21 -2 0 -10 -8 -17
-17z"/>
</g>
</svg>
